# xmcd
#
# Track frame offsets:
#	180
#	27858
#	53266
#	80206
#	96112
#	131128
#	156983
#	178311
#	203568
#	227750
#	244674
#	270270
#	294899
#
# Disc length: 4216
#
# Revision: 1
# Processed by: cddbd v1.5.1PL0 Copyright (c) Steve Scherf et al.
# Submitted via: CDex 1.50Beta7
# Normalized: r0:DSETVAR1
#
DISCID=a910760d
DTITLE=Various Artist - Last Night When We Were Young: The Ballad Album
DYEAR=1994
DGENRE=Jazz
TTITLE0=Midnight's Measure-In the Wee Small Hours - Jane Ira Bloom
TTITLE1=Nobody Else But Me - Andy Bey
TTITLE2=Soul Eyes - Bobby Watson
TTITLE3=Little Prayer - Dave Catney and Sandra Dudley
TTITLE4=Somewhere - Fred Hersch
TTITLE5=Lament - Gary Burton
TTITLE6=Estate - Toots Thielemans and Oscar Castro-Neves
TTITLE7=Memories Of You - Tana Reid
TTITLE8=Corcovado - Leny Andrade and Fred Hersch
TTITLE9=This Is All I Ask - George Shearing
TTITLE10=More Than You Know - Janis Siegel and Fred Hersch
TTITLE11=Adios Nonino - Phil Woods
TTITLE12=Last Night When We Were Young - Mark Murphy and Fred Hersch
EXTD=YEAR: 1994
EXTT0=
EXTT1=
EXTT2=
EXTT3=
EXTT4=
EXTT5=
EXTT6=
EXTT7=
EXTT8=
EXTT9=
EXTT10=
EXTT11=
EXTT12=
PLAYORDER=
